<svg width="467" height="890" viewBox="0 0 467 890" fill="none" xmlns="http://www.w3.org/2000/svg">
<g clip-path="url(#clip0_379_482)">
<mask id="mask0_379_482" style="mask-type:luminance" maskUnits="userSpaceOnUse" x="0" y="0" width="467" height="890">
<path d="M467 890V0H0V890H467Z" fill="white"/>
</mask>
<g mask="url(#mask0_379_482)">
<path d="M0 890H467V38.5L447.5 19.5L428 0H0V890Z" fill="#C83524"/>
<path d="M449 201H20V414H449V201Z" fill="#D9D9D9"/>
<path d="M100.793 200.88C145.413 200.88 181.586 165.09 181.586 120.94C181.586 76.7904 145.413 41 100.793 41C56.1722 41 20 76.7904 20 120.94C20 165.09 56.1722 200.88 100.793 200.88Z" fill="#EEE91B"/>
<path d="M311 689H449L449 414H311V689Z" fill="#1E1E1E"/>
<path d="M389 844V698H24V844H389Z" fill="#D9D9D9"/>
<path d="M97 771H24V844H97V771Z" fill="#1E1E1E"/>
</g>
<path d="M380 682C418.108 682 449 651.108 449 613C449 574.892 418.108 544 380 544C341.892 544 311 574.892 311 613C311 651.108 341.892 682 380 682Z" fill="#EEE91B"/>
<path d="M143 619C177.242 619 205 591.242 205 557C205 522.758 177.242 495 143 495C108.758 495 81 522.758 81 557C81 591.242 108.758 619 143 619Z" fill="#EEE91B"/>
<path d="M60.5 771C80.6584 771 97 754.658 97 734.5C97 714.342 80.6584 698 60.5 698C40.3416 698 24 714.342 24 734.5C24 754.658 40.3416 771 60.5 771Z" fill="#C83524"/>
<path d="M311 619H205V495H311V619Z" fill="#1E1E1E"/>
<path d="M133.5 771C153.658 771 170 787.342 170 807.5C170 827.658 153.658 844 133.5 844C113.342 844 97 827.658 97 807.5C97 787.342 113.342 771 133.5 771Z" fill="#C83524"/>
<path d="M316 771H243V698H316V771Z" fill="#1E1E1E"/>
<path d="M279.5 771C299.658 771 316 787.342 316 807.5C316 827.658 299.658 844 279.5 844C259.342 844 243 827.658 243 807.5C243 787.342 259.342 771 279.5 771Z" fill="#C83524"/>
<path d="M243 771H170V844H243V771Z" fill="#1E1E1E"/>
<path d="M170 698H97V771H170V698Z" fill="#1E1E1E"/>
<path d="M206.5 771C226.658 771 243 754.658 243 734.5C243 714.342 226.658 698 206.5 698C186.342 698 170 714.342 170 734.5C170 754.658 186.342 771 206.5 771Z" fill="#C83524"/>
<path d="M389 771H316V844H389V771Z" fill="#1E1E1E"/>
<path d="M352.5 771C372.658 771 389 754.658 389 734.5C389 714.342 372.658 698 352.5 698C332.342 698 316 714.342 316 734.5C316 754.658 332.342 771 352.5 771Z" fill="#C83524"/>
<rect x="20" y="495" width="61" height="124" fill="#D9D9D9"/>
<rect x="20" y="434" width="61" height="61" fill="#2036FD"/>
<rect x="20" y="558" width="61" height="61" fill="#2036FD"/>
<rect x="388" y="698" width="61" height="146" fill="#2036FD"/>
<rect x="311" y="434" width="61" height="230" transform="rotate(90 311 434)" fill="#D9D9D9"/>
</g>
<defs>
<clipPath id="clip0_379_482">
<rect width="467" height="890" fill="white"/>
</clipPath>
</defs>
</svg>
