<svg width="1920" height="1217" viewBox="0 0 1920 1217" fill="none" xmlns="http://www.w3.org/2000/svg">
<g clip-path="url(#clip0_323_341)">
<path d="M-119.94 896.965L1992.01 -43.3348L2115.94 235.021L3.99176 1175.32L-119.94 896.965Z" fill="#EEE91B"/>
<path d="M1166.31 127.186L1542.08 294.02L1541.84 490.766L1166.07 323.933L1166.31 127.186Z" fill="#151A9A"/>
<path d="M1389.95 226.476L1444.78 250.82L1444.54 447.567L1389.7 423.222L1389.95 226.476Z" fill="#D9D9D9"/>
<path d="M1166.17 247.096L1166.22 204.031L1541.99 370.864L1541.93 413.929L1166.17 247.096Z" fill="#D9D9D9"/>
<path d="M1399.09 230.532L1435.64 246.762L1435.4 443.509L1398.84 427.279L1399.09 230.532Z" fill="#F80404"/>
<path d="M1166.18 239.913L1166.21 211.203L1542.51 378.275L1542.48 406.985L1166.18 239.913Z" fill="#F80404"/>
<path d="M790.768 425.558L1166.69 258.66L1166.77 324.036L790.85 490.934L790.768 425.558Z" fill="#151A9A"/>
<path d="M790.16 360.826L1165.92 194L1166 259.376L790.242 426.202L790.16 360.826Z" fill="#D9D9D9"/>
<path d="M1166.57 126.984L790.605 294.808L790.686 360.185L1166.61 193.288L1166.57 126.984Z" fill="#F80404"/>
<path d="M790.3 294.588L1168.16 462.367L1167.93 659.431L790.07 491.652L790.3 294.588Z" fill="#D9D9D9"/>
<path d="M790.138 360.577L1167.66 528.207L1167.59 593.754L790.061 426.124L790.138 360.577Z" fill="#151A9A"/>
<path d="M790.147 426.166L1167.59 593.758L1167.51 659.305L790.071 491.713L790.147 426.166Z" fill="#F80404"/>
<path d="M1107.29 482.364L992.43 431.363L992.369 485.07L998.011 503.653L1010.13 519.612L1096.14 555.9L1105.32 548.553L1109.11 537.331L1107.29 482.364Z" fill="#F80404"/>
<path d="M1068.11 539.006C1068.1 542.392 1073.86 550.235 1081.31 553.541C1088.75 556.846 1094.79 556.781 1094.79 553.395C1094.8 550.008 1089.04 542.165 1081.59 538.859C1074.15 535.553 1068.11 535.619 1068.11 539.006Z" fill="#151A9A"/>
<path d="M1034.94 524.068C1034.94 527.455 1029.17 530.178 1021.72 526.871C1014.28 523.565 1008.24 518.14 1008.25 514.754C1008.25 511.367 1014.02 508.644 1021.47 511.951C1028.91 515.257 1034.95 520.682 1034.94 524.068Z" fill="#151A9A"/>
<path d="M1084.81 560.591L1092.64 554.97L1080.77 549.069L1072.15 540.586L1060.28 538.49L1050.85 534.3L1039.26 523.866L1032.51 523.622L1022.53 524.267L1010.4 520.148L1020.63 533.156L1029.26 542.273L1051.35 560.97L1058.91 561.996L1068.35 562.592L1078.33 561.312L1084.81 560.591Z" fill="#151A9A" stroke="#151A9A" stroke-width="2"/>
<path d="M1033.87 520.629C1032.42 525.691 1048.56 537.475 1057.05 539.586C1064.49 542.892 1071.07 542.644 1071.07 539.257C1071.08 535.871 1059.66 522.561 1052.21 519.255C1043.93 515.573 1032.98 516.841 1033.87 520.629Z" fill="#151A9A"/>
<path d="M1058.75 464.189C1051.8 462.478 1047.75 460.74 1040.15 455.93C1041.71 460.753 1042.44 463.496 1042.86 468.561L1044.12 518.798L1057.6 524.598L1056.34 474.541C1056.36 470.399 1056.91 468.119 1058.75 464.189Z" fill="#D9D9D9"/>
<path d="M1079.77 487.061C1056.39 479.623 1043.28 473.757 1019.91 460.484L1019.9 473.594C1043.27 481.181 1056.38 486.923 1079.75 500.171L1079.77 487.061Z" fill="#D9D9D9"/>
<path d="M1086.75 509.629C1058.32 499.947 1042.38 492.821 1013.96 477.305C1015.86 483.174 1015.92 486.099 1013.94 490.414C1042.37 500.246 1058.32 507.246 1086.74 522.738C1085.37 517.187 1085.27 514.26 1086.75 509.629Z" fill="#D9D9D9"/>
<path d="M419.271 661.057L789.881 825.602L790.12 632.197L419.51 467.653L419.271 661.057Z" fill="#F80404"/>
<path d="M640.506 759.284L693.624 782.867L693.863 589.463L640.745 565.879L640.506 759.284Z" fill="#D9D9D9"/>
<path d="M419.414 543.669L419.363 585.039L789.972 749.583L790.024 708.213L419.414 543.669Z" fill="#D9D9D9"/>
<path d="M649.54 763.296L684.576 778.852L684.815 585.447L649.779 569.892L649.54 763.296Z" fill="#151A9A"/>
<path d="M419.408 550.776L419.375 577.945L790.516 742.726L790.55 715.557L419.408 550.776Z" fill="#151A9A"/>
<path d="M790.129 631.052L1167.4 463.023L1167.87 658.901L790 825.5L790.129 631.052Z" fill="#D9D9D9"/>
<path d="M790 728.99L1167.63 560.961L1167.87 658.9L789.636 825.5L790 728.99Z" fill="#F80404"/>
<path d="M991.682 639.115L1168 658.43L1167.53 462.949L991.682 639.115Z" fill="#151A9A"/>
<path d="M419.475 466.297L48.0159 631.219L48.2559 825.433L419.715 660.512L419.475 466.297Z" fill="#D9D9D9"/>
<path d="M419.549 531.313L48.0901 696.234L48.1699 760.833L419.629 595.912L419.549 531.313Z" fill="#151A9A"/>
<path d="M419.636 595.915L48.1765 760.836L48.2564 825.435L419.716 660.514L419.636 595.915Z" fill="#F80404"/>
<path d="M48.3003 630.776L373.475 818.32L373.027 1013.22L47.8522 825.679L48.3003 630.776Z" fill="#F80404"/>
<path d="M293.938 771.961L374.005 818.203L373.781 915.655L293.714 869.413L293.938 771.961Z" fill="#151A9A"/>
<path d="M294 771.876L47.5 629.5L47.9646 727.978L293.777 869L294 771.876Z" fill="#D9D9D9"/>
<path d="M334.093 816.938L329.027 832.826L312.806 823.454L325.908 842.646L320.842 858.535L334.007 854.508L347.109 873.7L342.13 852.02L355.294 847.991L339.06 838.619L334.093 816.938Z" fill="#D9D9D9"/>
<path d="M1922.92 124L1542.06 293.628V490.21L1923.4 323.232L1922.92 124Z" fill="#D9D9D9"/>
<path d="M1795.96 180.543L1922.92 124L1923.4 323.232L1796.44 379.775L1795.96 180.543Z" fill="#151A9A"/>
<path d="M1669.01 237.086L1542.06 293.628L1541.29 490.825L1669.49 436.318L1669.01 237.086Z" fill="#F80404"/>
<path d="M0.999975 983.436L373.179 818.195L373.42 1012.79L1.24049 1178.03L0.999975 983.436Z" fill="#D9D9D9"/>
<path d="M1.2219 1162.99L373.401 997.754L373.42 1012.79L1.24048 1178.03L1.2219 1162.99Z" fill="#F80404"/>
<path d="M1.18479 1132.93L373.364 967.688L373.383 982.72L1.20337 1147.96L1.18479 1132.93Z" fill="#F80404"/>
<path d="M1.14792 1102.87L373.327 937.625L373.346 952.658L1.16651 1117.9L1.14792 1102.87Z" fill="#F80404"/>
<path d="M1.12327 1072.8L373.302 907.555L373.321 922.588L1.14185 1087.83L1.12327 1072.8Z" fill="#F80404"/>
<path d="M1.07395 1042.73L373.253 877.492L373.272 892.525L1.09253 1057.77L1.07395 1042.73Z" fill="#F80404"/>
<path d="M1.03684 1012.67L373.216 847.426L373.235 862.459L1.05542 1027.7L1.03684 1012.67Z" fill="#F80404"/>
<path d="M0.999975 983.436L373.179 818.195L373.198 833.228L1.01856 998.469L0.999975 983.436Z" fill="#F80404"/>
<path d="M184.161 902.116L373.179 818.195L373.309 923.425L184.291 1007.35L184.161 902.116Z" fill="#151A9A"/>
<path d="M328.041 926.812L326.611 931.488L321.964 933.55L325.724 934.378L324.294 939.055L328.041 934.891L331.8 935.72L330.37 932.318L334.118 928.154L329.471 930.214L328.041 926.812Z" fill="#D9D9D9"/>
<path d="M328.016 905.52L326.586 910.196L321.939 912.257L325.699 913.087L324.269 917.762L328.016 913.598L331.776 914.428L330.346 911.025L334.093 906.861L329.446 908.923L328.016 905.52Z" fill="#D9D9D9"/>
<path d="M327.979 884.641L326.549 889.316L321.915 891.378L325.674 892.206L324.244 896.883L327.991 892.719L331.751 893.548L330.309 890.146L334.068 885.982L329.421 888.043L327.979 884.641Z" fill="#D9D9D9"/>
<path d="M327.955 863.758L326.525 868.435L321.89 870.495L325.65 871.325L324.22 876.001L327.967 871.837L331.726 872.666L330.284 869.263L334.044 865.099L329.397 867.161L327.955 863.758Z" fill="#D9D9D9"/>
<path d="M311.524 925.375L310.094 930.051L305.447 932.112L309.207 932.941L307.777 937.618L311.536 933.454L315.284 934.282L313.854 930.881L317.601 926.717L312.966 928.777L311.524 925.375Z" fill="#D9D9D9"/>
<path d="M311.499 904.082L310.069 908.759L305.422 910.819L309.182 911.649L307.752 916.325L311.499 912.161L315.259 912.991L313.829 909.588L317.576 905.424L312.929 907.485L311.499 904.082Z" fill="#D9D9D9"/>
<path d="M311.462 883.195L310.045 887.871L305.398 889.933L309.157 890.761L307.727 895.438L311.475 891.274L315.234 892.103L313.792 888.701L317.552 884.537L312.905 886.597L311.462 883.195Z" fill="#D9D9D9"/>
<path d="M311.438 862.32L310.008 866.997L305.373 869.058L309.133 869.887L307.703 874.563L311.45 870.399L315.21 871.229L313.767 867.826L317.527 863.662L312.88 865.723L311.438 862.32Z" fill="#D9D9D9"/>
<path d="M327.93 842.883L326.5 847.56L321.866 849.621L325.625 850.45L324.195 855.127L327.942 850.963L331.702 851.791L330.26 848.39L334.019 844.224L329.372 846.286L327.93 842.883Z" fill="#D9D9D9"/>
<path d="M328.041 926.812L326.611 931.488L321.964 933.55L325.724 934.378L324.294 939.055L328.041 934.891L331.8 935.72L330.37 932.318L334.118 928.154L329.471 930.214L328.041 926.812Z" fill="#D9D9D9"/>
<path d="M328.016 905.52L326.586 910.196L321.939 912.257L325.699 913.087L324.269 917.762L328.016 913.598L331.776 914.428L330.346 911.025L334.093 906.861L329.446 908.923L328.016 905.52Z" fill="#D9D9D9"/>
<path d="M327.979 884.641L326.549 889.316L321.915 891.378L325.674 892.206L324.244 896.883L327.991 892.719L331.751 893.548L330.309 890.146L334.068 885.982L329.421 888.043L327.979 884.641Z" fill="#D9D9D9"/>
<path d="M327.955 863.758L326.525 868.435L321.89 870.495L325.65 871.325L324.22 876.001L327.967 871.837L331.726 872.666L330.284 869.263L334.044 865.099L329.397 867.161L327.955 863.758Z" fill="#D9D9D9"/>
<path d="M327.93 842.883L326.5 847.56L321.866 849.621L325.625 850.45L324.195 855.127L327.942 850.963L331.702 851.791L330.26 848.39L334.019 844.224L329.372 846.286L327.93 842.883Z" fill="#D9D9D9"/>
<path d="M345.063 910.898L343.634 915.575L338.999 917.637L342.746 918.465L341.329 923.142L345.076 918.978L348.835 919.807L347.393 916.405L351.153 912.241L346.506 914.302L345.063 910.898Z" fill="#D9D9D9"/>
<path d="M345.039 889.602L343.609 894.278L338.962 896.339L342.721 897.169L341.292 901.844L345.051 897.68L348.81 898.51L347.368 895.107L351.115 890.943L346.481 893.005L345.039 889.602Z" fill="#D9D9D9"/>
<path d="M345.014 868.719L343.584 873.396L338.937 875.457L342.696 876.286L341.267 880.963L345.026 876.799L348.786 877.627L347.343 874.225L351.091 870.062L346.456 872.122L345.014 868.719Z" fill="#D9D9D9"/>
<path d="M344.989 847.844L343.56 852.519L338.913 854.581L342.672 855.41L341.242 860.087L345.002 855.923L348.761 856.752L347.319 853.349L351.066 849.185L346.432 851.246L344.989 847.844Z" fill="#D9D9D9"/>
<path d="M361.58 912.34L360.15 917.017L355.516 919.078L359.263 919.907L357.833 924.584L361.592 920.42L365.352 921.248L363.91 917.847L367.669 913.683L363.022 915.743L361.58 912.34Z" fill="#D9D9D9"/>
<path d="M361.556 891.043L360.126 895.72L355.479 897.78L359.238 898.61L357.809 903.286L361.568 899.122L365.328 899.952L363.885 896.548L367.633 892.385L362.998 894.446L361.556 891.043Z" fill="#D9D9D9"/>
<path d="M361.531 870.164L360.101 874.841L355.454 876.901L359.214 877.731L357.784 882.408L361.543 878.244L365.303 879.073L363.86 875.669L367.608 871.506L362.973 873.567L361.531 870.164Z" fill="#D9D9D9"/>
<path d="M361.506 849.281L360.077 853.957L355.43 856.019L359.189 856.847L357.759 861.524L361.519 857.36L365.278 858.19L363.836 854.787L367.583 850.623L362.949 852.683L361.506 849.281Z" fill="#D9D9D9"/>
<path d="M361.482 828.406L360.052 833.083L355.405 835.144L359.164 835.973L357.734 840.649L361.494 836.485L365.241 837.315L363.811 833.912L367.558 829.748L362.911 831.809L361.482 828.406Z" fill="#D9D9D9"/>
<path d="M294.489 941.289L293.059 945.966L288.425 948.026L292.184 948.856L290.754 953.532L294.502 949.368L298.261 950.198L296.819 946.794L300.578 942.631L295.931 944.692L294.489 941.289Z" fill="#D9D9D9"/>
<path d="M294.464 919.992L293.035 924.669L288.4 926.731L292.147 927.559L290.717 932.236L294.477 928.072L298.236 928.901L296.794 925.499L300.541 921.335L295.907 923.395L294.464 919.992Z" fill="#D9D9D9"/>
<path d="M294.44 899.113L293.01 903.79L288.363 905.851L292.123 906.679L290.693 911.356L294.452 907.192L298.212 908.022L296.77 904.619L300.517 900.455L295.882 902.515L294.44 899.113Z" fill="#D9D9D9"/>
<path d="M294.415 878.234L292.985 882.911L288.338 884.972L292.098 885.802L290.668 890.478L294.428 886.313L298.187 887.143L296.745 883.74L300.492 879.576L295.857 881.638L294.415 878.234Z" fill="#D9D9D9"/>
<path d="M277.972 939.844L276.542 944.521L271.908 946.581L275.667 947.411L274.237 952.087L277.984 947.923L281.744 948.752L280.302 945.349L284.061 941.185L279.414 943.247L277.972 939.844Z" fill="#D9D9D9"/>
<path d="M277.948 918.555L276.518 923.232L271.883 925.293L275.643 926.122L274.213 930.799L277.96 926.635L281.72 927.463L280.277 924.061L284.037 919.897L279.39 921.958L277.948 918.555Z" fill="#D9D9D9"/>
<path d="M277.923 897.672L276.493 902.349L271.859 904.409L275.606 905.239L274.176 909.915L277.935 905.751L281.695 906.581L280.253 903.177L284 899.013L279.365 901.074L277.923 897.672Z" fill="#D9D9D9"/>
<path d="M277.898 876.789L276.468 881.466L271.821 883.528L275.581 884.356L274.151 889.033L277.91 884.869L281.67 885.698L280.228 882.295L283.975 878.131L279.34 880.192L277.898 876.789Z" fill="#D9D9D9"/>
<path d="M294.391 857.359L292.961 862.035L288.314 864.097L292.073 864.925L290.643 869.602L294.403 865.438L298.162 866.267L296.72 862.865L300.468 858.701L295.833 860.761L294.391 857.359Z" fill="#D9D9D9"/>
<path d="M260.95 957.02L259.52 961.695L254.873 963.757L258.632 964.585L257.203 969.262L260.962 965.098L264.722 965.927L263.279 962.525L267.027 958.361L262.392 960.421L260.95 957.02Z" fill="#D9D9D9"/>
<path d="M260.925 935.719L259.495 940.396L254.849 942.457L258.608 943.286L257.178 947.963L260.938 943.799L264.697 944.627L263.255 941.224L267.002 937.06L262.368 939.122L260.925 935.719Z" fill="#D9D9D9"/>
<path d="M260.9 914.844L259.471 919.519L254.824 921.581L258.583 922.41L257.153 927.087L260.913 922.923L264.66 923.751L263.23 920.349L266.977 916.185L262.343 918.246L260.9 914.844Z" fill="#D9D9D9"/>
<path d="M260.876 893.965L259.446 898.642L254.799 900.702L258.559 901.532L257.129 906.208L260.876 902.044L264.635 902.874L263.205 899.47L266.953 895.306L262.306 897.368L260.876 893.965Z" fill="#D9D9D9"/>
<path d="M243.903 955.812L242.473 960.489L237.826 962.55L241.586 963.38L240.156 968.056L243.915 963.893L247.675 964.721L246.233 961.318L249.98 957.154L245.345 959.216L243.903 955.812Z" fill="#D9D9D9"/>
<path d="M243.878 934.516L242.448 939.191L237.801 941.253L241.561 942.081L240.131 946.758L243.89 942.594L247.638 943.424L246.208 940.021L249.955 935.857L245.308 937.918L243.878 934.516Z" fill="#D9D9D9"/>
<path d="M243.854 913.637L242.424 918.314L237.777 920.374L241.536 921.204L240.106 925.879L243.854 921.716L247.613 922.545L246.183 919.142L249.93 914.978L245.283 917.04L243.854 913.637Z" fill="#D9D9D9"/>
<path d="M243.829 892.762L242.399 897.437L237.752 899.499L241.511 900.328L240.081 905.004L243.829 900.841L247.588 901.669L246.158 898.267L249.906 894.103L245.259 896.164L243.829 892.762Z" fill="#D9D9D9"/>
<path d="M260.851 873.086L259.421 877.763L254.774 879.824L258.534 880.653L257.104 885.33L260.851 881.166L264.611 881.995L263.181 878.593L266.928 874.429L262.281 876.489L260.851 873.086Z" fill="#D9D9D9"/>
<path d="M227.411 971.492L225.981 976.169L221.334 978.23L225.093 979.059L223.663 983.735L227.411 979.571L231.17 980.401L229.74 976.998L233.487 972.834L228.84 974.895L227.411 971.492Z" fill="#D9D9D9"/>
<path d="M227.374 950.195L225.944 954.871L221.309 956.933L225.069 957.761L223.639 962.438L227.386 958.274L231.145 959.103L229.703 955.701L233.463 951.537L228.816 953.597L227.374 950.195Z" fill="#D9D9D9"/>
<path d="M227.349 929.312L225.919 933.989L221.284 936.05L225.044 936.88L223.614 941.555L227.361 937.391L231.121 938.221L229.678 934.818L233.438 930.654L228.791 932.716L227.349 929.312Z" fill="#D9D9D9"/>
<path d="M227.324 908.438L225.894 913.114L221.26 915.175L225.019 916.005L223.589 920.681L227.336 916.518L231.096 917.346L229.654 913.943L233.413 909.779L228.766 911.841L227.324 908.438Z" fill="#D9D9D9"/>
<path d="M210.351 970.289L208.921 974.965L204.287 977.026L208.046 977.855L206.616 982.532L210.363 978.368L214.123 979.196L212.681 975.794L216.44 971.631L211.793 973.691L210.351 970.289Z" fill="#D9D9D9"/>
<path d="M210.326 948.992L208.896 953.669L204.262 955.729L208.021 956.559L206.591 961.235L210.338 957.071L214.098 957.901L212.656 954.498L216.415 950.334L211.768 952.395L210.326 948.992Z" fill="#D9D9D9"/>
<path d="M210.302 928.109L208.872 932.786L204.237 934.848L207.997 935.676L206.567 940.353L210.314 936.189L214.074 937.018L212.631 933.616L216.391 929.452L211.744 931.512L210.302 928.109Z" fill="#D9D9D9"/>
<path d="M210.277 907.234L208.847 911.91L204.2 913.972L207.96 914.8L206.53 919.477L210.289 915.313L214.049 916.143L212.607 912.74L216.354 908.576L211.719 910.636L210.277 907.234Z" fill="#D9D9D9"/>
<path d="M227.299 887.562L225.87 892.238L221.235 894.3L224.994 895.128L223.565 899.805L227.312 895.641L231.071 896.47L229.629 893.068L233.388 888.904L228.741 890.964L227.299 887.562Z" fill="#D9D9D9"/>
<path d="M193.859 985.969L192.429 990.646L187.794 992.706L191.554 993.536L190.124 998.213L193.871 994.049L197.631 994.877L196.188 991.474L199.948 987.31L195.301 989.372L193.859 985.969Z" fill="#D9D9D9"/>
<path d="M193.834 964.672L192.404 969.348L187.757 971.409L191.517 972.238L190.087 976.915L193.847 972.751L197.606 973.581L196.164 970.177L199.911 966.013L195.276 968.074L193.834 964.672Z" fill="#D9D9D9"/>
<path d="M193.81 943.789L192.38 948.466L187.733 950.526L191.492 951.356L190.062 956.033L193.822 951.868L197.581 952.698L196.139 949.294L199.886 945.131L195.252 947.192L193.81 943.789Z" fill="#D9D9D9"/>
<path d="M193.785 922.918L192.355 927.594L187.708 929.655L191.468 930.484L190.038 935.161L193.797 930.997L197.557 931.825L196.115 928.423L199.862 924.26L195.227 926.32L193.785 922.918Z" fill="#D9D9D9"/>
<path d="M193.76 902.035L192.33 906.712L187.683 908.772L191.443 909.602L190.013 914.278L193.772 910.114L197.52 910.944L196.09 907.541L199.837 903.377L195.202 905.438L193.76 902.035Z" fill="#D9D9D9"/>
</g>
<defs>
<clipPath id="clip0_323_341">
<rect width="2109" height="1217" fill="white" transform="matrix(-1 0 0 1 2015 0)"/>
</clipPath>
</defs>
</svg>
