<svg width="32" height="291" viewBox="0 0 32 291" fill="none" xmlns="http://www.w3.org/2000/svg">
<path d="M0 0H32V11.7054L0 38V0Z" fill="#1E1E1E"/>
<path d="M32 290.203H0V257.998L32 232.998V290.203Z" fill="#1E1E1E"/>
<path d="M0 42.197L32 17V24.803L0 50V42.197Z" fill="#1E1E1E"/>
<path d="M0 54.197L32 29V36.803L0 62V54.197Z" fill="#1E1E1E"/>
<path d="M0 66.197L32 41V48.803L0 74V66.197Z" fill="#1E1E1E"/>
<path d="M0 49.197L32 24V31.803L0 57V49.197Z" fill="#1E1E1E"/>
<path d="M0 72.197L32 47V54.803L0 80V72.197Z" fill="#1E1E1E"/>
<path d="M0 97.197L32 72V79.803L0 105V97.197Z" fill="#1E1E1E"/>
<path d="M0 78.197L32 53V60.803L0 86V78.197Z" fill="#1E1E1E"/>
<path d="M0 90.197L32 65V72.803L0 98V90.197Z" fill="#1E1E1E"/>
<path d="M0 102.197L32 77V84.803L0 110V102.197Z" fill="#1E1E1E"/>
<path d="M0 114.197L32 89V96.803L0 122V114.197Z" fill="#1E1E1E"/>
<path d="M0 126.197L32 101V108.803L0 134V126.197Z" fill="#1E1E1E"/>
<path d="M0 119.197L32 94V101.803L0 127V119.197Z" fill="#1E1E1E"/>
<path d="M0 144.197L32 119V126.803L0 152V144.197Z" fill="#1E1E1E"/>
<path d="M0 138.197L32 113V120.803L0 146V138.197Z" fill="#1E1E1E"/>
<path d="M0 150.197L32 125V132.803L0 158V150.197Z" fill="#1E1E1E"/>
<path d="M0 162.197L32 137V144.803L0 170V162.197Z" fill="#1E1E1E"/>
<path d="M0 174.197L32 149V156.803L0 182V174.197Z" fill="#1E1E1E"/>
<path d="M0 169.197L32 144V151.803L0 177V169.197Z" fill="#1E1E1E"/>
<path d="M0 193.197L32 168V175.803L0 201V193.197Z" fill="#1E1E1E"/>
<path d="M0 186.197L32 161V168.803L0 194V186.197Z" fill="#1E1E1E"/>
<path d="M0 198.197L32 173V180.803L0 206V198.197Z" fill="#1E1E1E"/>
<path d="M0 210.197L32 185V192.803L0 218V210.197Z" fill="#1E1E1E"/>
<path d="M0 222.197L32 197V204.803L0 230V222.197Z" fill="#1E1E1E"/>
<path d="M0 217.197L32 192V199.803L0 225V217.197Z" fill="#1E1E1E"/>
<path d="M0 246.197L32 221V228.803L0 254V246.197Z" fill="#1E1E1E"/>
<path d="M0 241.197L32 216V223.803L0 249V241.197Z" fill="#1E1E1E"/>
<path d="M0 234.197L32 209V216.803L0 242V234.197Z" fill="#1E1E1E"/>
</svg>
