<svg width="200" height="200" viewBox="0 0 200 200" fill="none" xmlns="http://www.w3.org/2000/svg">
<g clip-path="url(#clip0_382_563)">
<path d="M0 100C0 44.7715 44.7715 0 100 0C155.228 0 200 44.7715 200 100C200 155.228 155.228 200 100 200C44.7715 200 0 155.228 0 100Z" fill="white"/>
<path d="M28.3 93.7C23 93.7 18.55 92 15 88.6C11.45 85.15 9.65 80.8 9.65 75.5C9.65 70.15 11.45 65.8 15 62.4C18.55 59 23.1 57.3 28.55 57.3C32.6 57.3 36.1 58.2 39.05 59.95V67.05C35.8 65.05 32.5 64.05 29.05 64.05C25.5 64.05 22.6 65.1 20.35 67.25C18.1 69.35 17 72.15 17 75.65C17 79.1 18.1 81.9 20.25 83.95C22.4 86 25.1 87.05 28.3 87.05C31.35 87.05 33.7 86.3 35.35 84.75V72.7H42.55V88.15C41.1 89.7 39.1 91.05 36.55 92.1C34 93.15 31.25 93.7 28.3 93.7ZM71.4301 93H45.1801V58H70.8801V64.45H52.3801V71.2H67.2801V77.55H52.3801V86.55H71.4301V93ZM81.6301 83.7C83.6801 85.85 86.2801 86.95 89.3801 86.95C92.4801 86.95 95.0301 85.85 97.0801 83.7C99.1301 81.55 100.18 78.8 100.18 75.5C100.18 72.2 99.1301 69.45 97.0801 67.3C95.0301 65.15 92.4801 64.05 89.3801 64.05C86.2801 64.05 83.6801 65.15 81.6301 67.3C79.5801 69.45 78.5801 72.2 78.5801 75.5C78.5801 78.8 79.5801 81.55 81.6301 83.7ZM71.2301 75.5C71.2301 70.4 72.9301 66.1 76.3801 62.6C79.8301 59.05 84.1801 57.3 89.3801 57.3C94.5801 57.3 98.8801 59.05 102.33 62.6C105.78 66.1 107.53 70.4 107.53 75.5C107.53 80.55 105.78 84.85 102.33 88.4C98.8801 91.95 94.5801 93.7 89.3801 93.7C84.1801 93.7 79.8301 91.95 76.3801 88.4C72.9301 84.85 71.2301 80.55 71.2301 75.5Z" fill="black"/>
<rect x="120" width="72" height="50" fill="#2036FD"/>
<rect x="120" y="96" width="72" height="50" fill="#2036FD"/>
<rect x="157" width="35" height="25" fill="#1E1E1E"/>
<path d="M26.05 185H18.85V150H26L36.15 164.5L46.3 150H53.4V185H46.3V161.05L38.25 172.3H34.25L26.05 161.05V185ZM83.3852 185H57.1352V150H82.8352V156.45H64.3352V163.2H79.2352V169.55H64.3352V178.55H83.3852V185ZM82.7676 156.45V150H112.118V156.45H101.018V185H93.8176V156.45H82.7676ZM120.691 185H113.491V150H129.691C133.391 150 136.341 150.95 138.491 152.9C140.641 154.8 141.741 157.3 141.741 160.35C141.741 165 139.041 168.65 134.491 170.05L145.291 185H136.941L126.741 170.85H120.691V185ZM120.691 156.3V164.8H129.291C132.541 164.8 134.491 163.3 134.491 160.55C134.491 157.9 132.541 156.3 129.291 156.3H120.691ZM153.414 185H146.264V150H153.414V185ZM161.846 185H154.296L169.296 149.8H176.196L191.196 185H183.546L180.096 176.9H165.296L161.846 185ZM172.696 158.8L167.546 170.95H177.796L172.696 158.8Z" fill="black"/>
<rect x="7" y="96" width="81" height="50" fill="#2036FD"/>
<rect x="7" width="81" height="50" fill="#1E1E1E"/>
<circle cx="88" cy="25" r="25" fill="#EEE91B"/>
<rect x="146" y="50" width="46" height="46" rx="23" fill="#C83524"/>
</g>
<defs>
<clipPath id="clip0_382_563">
<path d="M0 100C0 44.7715 44.7715 0 100 0C155.228 0 200 44.7715 200 100C200 155.228 155.228 200 100 200C44.7715 200 0 155.228 0 100Z" fill="white"/>
</clipPath>
</defs>
</svg>
