<svg width="768" height="1024" viewBox="0 0 768 1024" fill="none" xmlns="http://www.w3.org/2000/svg">
<g clip-path="url(#clip0_379_524)">
<rect width="1024" height="768" transform="matrix(0 1 -1 0 768 0)" fill="#EEE91B"/>
<rect x="703" y="413" width="197" height="292" transform="rotate(90 703 413)" fill="#1E1E1E"/>
<rect x="619" y="810" width="84" height="124" fill="#2036FD"/>
<rect x="380" y="475" width="62" height="98" fill="#2036FD"/>
<rect x="118" y="734" width="155" height="76" fill="#2036FD"/>
<rect x="493" y="694" width="84" height="124" fill="#C83524"/>
<rect x="118" y="672" width="124" height="124" fill="#C83524"/>
<rect x="535" y="441" width="168" height="315" fill="#1E1E1E"/>
<rect x="411" y="289" width="124" height="124" fill="#1E1E1E"/>
<rect x="180" y="413" width="93" height="259" fill="#1E1E1E"/>
<rect x="349" y="87" width="38" height="161" fill="#1E1E1E"/>
<rect x="349" y="105" width="38" height="102" fill="#D9D9D9"/>
<rect x="242" y="351" width="231" height="124" fill="#D9D9D9"/>
<rect x="56" y="87" width="186" height="66" fill="#D9D9D9"/>
<rect x="143" y="138" width="99" height="15" fill="#1E1E1E"/>
<circle cx="118" cy="672" r="62" fill="#D9D9D9"/>
<circle cx="641" cy="149" r="62" fill="#2036FD"/>
<circle cx="273" cy="444" r="31" fill="#2036FD"/>
<circle cx="218.5" cy="506.5" r="38.5" fill="#C83524"/>
<rect x="56" y="87" width="11" height="585" fill="#D9D9D9"/>
<rect x="535" y="810" width="11" height="468" transform="rotate(90 535 810)" fill="#1E1E1E"/>
<rect x="577" y="810" width="11" height="42" transform="rotate(90 577 810)" fill="#D9D9D9"/>
<rect x="473" y="475" width="62" height="62" fill="#EEE91B"/>
<rect x="349" y="351" width="62" height="37" fill="#C83524"/>
<rect x="473" y="289" width="62" height="62" fill="#EEE91B"/>
</g>
<defs>
<clipPath id="clip0_379_524">
<rect width="1024" height="768" fill="white" transform="matrix(0 1 -1 0 768 0)"/>
</clipPath>
</defs>
</svg>
